<svg width="16" height="18" viewBox="0 0 16 18" fill="none" xmlns="http://www.w3.org/2000/svg">
<path fill-rule="evenodd" clip-rule="evenodd" d="M13.9238 10.6382C13.0191 14.0145 9.5486 16.0182 6.17225 15.1135C5.05716 14.8147 4.09394 14.2375 3.33477 13.4769L2.97627 13.1184L5.77629 13.1179C6.25295 13.1178 6.63928 12.7313 6.63919 12.2547C6.63911 11.778 6.25264 11.3917 5.77598 11.3918L0.892888 11.3926C0.663987 11.3927 0.444479 11.4836 0.282652 11.6455C0.120826 11.8074 0.0299389 12.027 0.0299876 12.2559L0.0310137 17.1371C0.0311137 17.6138 0.417598 18.0001 0.894251 18C1.3709 17.9999 1.75723 17.6134 1.75713 17.1368L1.75654 14.3397L2.1131 14.6963C3.08091 15.6658 4.30954 16.4014 5.7255 16.7808C10.0227 17.9322 14.4396 15.3821 15.5911 11.0849C15.7144 10.6245 15.4412 10.1513 14.9808 10.0279C14.5204 9.90453 14.0471 10.1778 13.9238 10.6382ZM15.3379 6.35466C15.4998 6.19278 15.5907 5.97322 15.5907 5.7443L15.5899 0.862915C15.5898 0.386263 15.2033 -7.72564e-05 14.7267 1.15881e-08C14.25 7.94707e-05 13.8637 0.386546 13.8638 0.863198L13.8642 3.6605L13.5077 3.30398C12.5399 2.33458 11.311 1.59874 9.89518 1.21937C5.59801 0.0679416 1.18105 2.61807 0.0296221 6.91525C-0.0937447 7.37566 0.179484 7.8489 0.639895 7.97227C1.10031 8.09564 1.57355 7.82241 1.69692 7.362C2.60161 3.98565 6.07208 1.98197 9.44843 2.88666C10.5636 3.18546 11.5268 3.76276 12.286 4.52337L12.644 4.88139L9.84542 4.88139C9.36877 4.88139 8.98237 5.26779 8.98237 5.74444C8.98237 6.22109 9.36877 6.6075 9.84542 6.6075H14.7276C14.9565 6.6075 15.1761 6.51655 15.3379 6.35466Z" fill="#FCA120"/>
</svg>
