<svg width="18" height="18" viewBox="0 0 18 18" fill="none" xmlns="http://www.w3.org/2000/svg">
<path fill-rule="evenodd" clip-rule="evenodd" d="M9 18C13.9706 18 18 13.9706 18 9C18 4.02944 13.9706 0 9 0C4.02944 0 0 4.02944 0 9C0 13.9706 4.02944 18 9 18ZM13.3386 6.96502C13.6127 6.58816 13.5294 6.06046 13.1525 5.78638C12.7757 5.5123 12.248 5.59562 11.9739 5.97248L8.05466 11.3614L5.94037 9.24713C5.61087 8.91762 5.07663 8.91762 4.74713 9.24713C4.41762 9.57663 4.41762 10.1109 4.74713 10.4404L7.55963 13.2529C7.73412 13.4274 7.97624 13.5167 8.22225 13.4974C8.46826 13.4781 8.69348 13.3521 8.83862 13.1525L13.3386 6.96502Z" fill="#32BA7C"/>
</svg>
