<svg width="18" height="18" viewBox="0 0 18 18" fill="none" xmlns="http://www.w3.org/2000/svg">
<path fill-rule="evenodd" clip-rule="evenodd" d="M9 18C13.9706 18 18 13.9706 18 9C18 4.02944 13.9706 0 9 0C4.02944 0 0 4.02944 0 9C0 13.9706 4.02944 18 9 18ZM7.06537 5.87213C6.73587 5.54262 6.20163 5.54262 5.87213 5.87213C5.54262 6.20163 5.54262 6.73587 5.87213 7.06537L7.80676 9L5.87213 10.9346C5.54262 11.2641 5.54262 11.7984 5.87213 12.1279C6.20163 12.4574 6.73587 12.4574 7.06537 12.1279L9 10.1932L10.9346 12.1279C11.2641 12.4574 11.7984 12.4574 12.1279 12.1279C12.4574 11.7984 12.4574 11.2641 12.1279 10.9346L10.1932 9L12.1279 7.06537C12.4574 6.73587 12.4574 6.20163 12.1279 5.87213C11.7984 5.54262 11.2641 5.54262 10.9346 5.87213L9 7.80676L7.06537 5.87213Z" fill="#F44336"/>
</svg>
