<svg width="18" height="14" viewBox="0 0 18 14" fill="none" xmlns="http://www.w3.org/2000/svg">
<path fill-rule="evenodd" clip-rule="evenodd" d="M4.5 14C2.01472 14 0 11.9853 0 9.5C0 7.5184 1.28084 5.83595 3.05979 5.2354C3.02046 4.9961 3 4.75044 3 4.5C3 2.01472 5.01472 0 7.5 0C9.14038 0 10.5758 0.877714 11.3621 2.18913C11.7189 2.06655 12.1017 2 12.5 2C14.433 2 16 3.567 16 5.5C16 5.83334 15.9534 6.15579 15.8664 6.4612C17.1353 7.13181 18 8.46492 18 10C18 12.2091 16.2091 14 14 14H4.5ZM8.25 11.25C8.25 11.6642 8.58579 12 9 12C9.41421 12 9.75 11.6642 9.75 11.25V6.6599L11.7004 8.76034C11.9823 9.06387 12.4568 9.08145 12.7603 8.79959C13.0639 8.51774 13.0814 8.04319 12.7996 7.73966L9.5496 4.23966C9.40769 4.08684 9.20855 4 9 4C8.79145 4 8.59231 4.08684 8.45041 4.23966L5.20041 7.73966C4.91855 8.04319 4.93613 8.51774 5.23966 8.79959C5.54319 9.08145 6.01774 9.06387 6.2996 8.76034L8.25 6.6599V11.25Z" fill="#1A5DBC"/>
</svg>
